<svg xmlns="http://www.w3.org/2000/svg" viewBox="0 0 297.916 297.916" width="25" height="25" style="fill-opacity: 0.9;"><path d="M67.834 247.124v-65H47.08c-3.285 0-6.236-2.008-7.44-5.063-1.207-3.055-.422-6.537 1.978-8.78l21.562-20.155H32.833v99h35zM235.657 148.124l21.23 19.844c1.765 1.468 2.89 3.68 2.89 6.156 0 4.418-3.582 8-8 8H228.833v65h35v-99h-28.177z" fill="#502900"/><path fill="#A05200" d="M188.585 104.124l29.955 28h51.102l-29.954-28M140.833 61.318V27.456l-18.25 17.058M156.833 61.78l18.752-17.266-18.752-17.528M171.468 88.124h51.103L187.64 55.47l-25.745 23.705M127.367 88.124l9.572-8.95-25.746-23.702-34.93 32.652M110.25 104.124H59.145l-29.955 28h51.105"/><path d="M289.915 148.124c3.285 0 6.235-2.008 7.44-5.063 1.207-3.055.422-6.537-1.978-8.78L154.88 2.947c-3.074-2.873-7.852-2.873-10.926 0L3.454 134.28c-2.398 2.242-3.184 5.725-1.978 8.78 1.205 3.056 4.156 5.063 7.44 5.063h7.917v100.32C6.833 251.79 0 261.136 0 272.123c0 13.786 11.38 25 25.167 25h247c13.785 0 24.833-11.214 24.833-25 0-10.986-7.167-20.334-17.167-23.68v-100.32h10.082zm-17.748 133h-247c-4.963 0-9-4.037-9-9s4.037-9 9-9h247c4.963 0 9 4.037 9 9s-4.038 9-9 9zm-2.525-149H218.54l-29.954-28h51.103l29.952 28zm-210.496-28h51.103l-29.955 28H29.19l29.956-28zm52.048-48.652l25.745 23.703-9.573 8.948H76.263l34.93-32.65zM222.57 88.124h-51.1l-9.574-8.948 25.744-23.704 34.93 32.652zm8.912 78H214.27l-59.39-55.516c-3.074-2.873-7.852-2.873-10.926 0l-59.39 55.516h-17.21l82.063-76.71 82.065 76.71zm-74.65 81h-17v-49h17v49zm16 0v-57c0-4.418-3.248-8-7.666-8h-33c-4.418 0-8.333 3.582-8.333 8v57h-40v-65h3.89c2.027 0 3.98-.77 5.462-2.155l56.232-52.565 56.232 52.564c1.48 1.384 3.434 2.154 5.462 2.154h1.72v65h-40zm-16-185.343V26.987l18.753 17.528-18.752 17.267zm-16-.462l-18.25-16.804 18.25-17.06V61.32zM63.18 148.124L41.616 168.28c-2.4 2.242-3.185 5.725-1.98 8.78 1.206 3.056 4.157 5.063 7.442 5.063h20.753v65h-35v-99H63.18zm165.653 99v-65h22.942c4.42 0 8-3.582 8-8 0-2.476-1.124-4.688-2.89-6.156l-21.23-19.844h28.178v99h-35z"/><path d="M211.113 182.124c-2.028 0-3.98-.77-5.463-2.155l-56.232-52.565-56.232 52.564c-1.48 1.384-3.435 2.154-5.463 2.154h-3.89v65h40v-57c0-4.418 3.916-8 8.334-8h33c4.418 0 7.667 3.582 7.667 8v57h40v-65h-1.72z" fill="#A05200"/><path d="M149.417 89.414l-82.064 76.71h17.212l59.39-55.516c3.074-2.873 7.852-2.873 10.926 0l59.39 55.516h17.213l-82.066-76.71z" fill="#FFB929"/><path fill="#FFC3AA" d="M139.833 198.124h17v49h-17z"/><path d="M272.167 263.124h-247c-4.963 0-9 4.037-9 9s4.037 9 9 9h247c4.963 0 9-4.037 9-9s-4.038-9-9-9z" fill="#A9BD34"/></svg>