<svg width="36" height="36" viewBox="0 0 36 36" xmlns="http://www.w3.org/2000/svg"><title>Pan-abode Logo-circle</title><defs><filter x="-50%" y="-50%" width="200%" height="200%" filterUnits="objectBoundingBox" id="a"><feOffset dx="4" dy="4" in="SourceAlpha" result="shadowOffsetOuter1"/><feGaussianBlur stdDeviation="1" in="shadowOffsetOuter1" result="shadowBlurOuter1"/><feColorMatrix values="0 0 0 0 0 0 0 0 0 0 0 0 0 0 0 0 0 0 0.5 0" in="shadowBlurOuter1" result="shadowMatrixOuter1"/><feMerge><feMergeNode in="shadowMatrixOuter1"/><feMergeNode in="SourceGraphic"/></feMerge></filter></defs><g filter="url(#a)" fill-rule="nonzero" fill="none" opacity=".85"><circle fill="#125D2F" cx="14.921" cy="14.952" r="14.825"/><path d="M11.186 9.078c-.003-.77.003-1.538.004-2.307h-2.7c.002.82.01 1.637.004 2.456 0 .32.038.608.36.796-.275.168-.353.42-.356.7-.004.67.005 1.34-.004 2.006-.003.31.05.586.353.768-.263.184-.352.436-.35.73 0 .627.006 1.257-.003 1.885-.004.347.005.677.37.87-.283.154-.36.398-.364.658-.01.73-.024 1.458.008 2.184.01.23.16.45.255.694-.186.117-.265.37-.267.654-.003.838-.004 1.677-.005 2.515h2.7c-.002-.77-.005-1.537-.005-2.307-.002-.453-.044-.564-.353-.91.312-.24.357-.586.353-.952-.004-.53-.002-1.058 0-1.588 0-.352-.026-.693-.37-.925.33-.255.373-.6.37-.966-.004-.53-.002-1.06 0-1.588 0-.354-.027-.695-.37-.927.33-.254.373-.6.37-.966-.004-.53-.002-1.06 0-1.588 0-.354-.028-.694-.37-.925.33-.256.372-.6.37-.967zM11.514 17.153v3.114h12.452v-3.12l-12.08.006h-.372zM11.514 13.674v3.114h12.452v-3.12c-4.026.003-8.052.004-12.08.006h-.372zM11.514 10.195v3.114h12.452v-3.12c-4.026 0-8.052.003-12.08.005h-.372zM11.49 20.63v3.055h11.396c.094-.04.184-.09.28-.12.378-.12.603-.402.8-.72v-2.22c-4.013.003-8.025.005-12.038.006h-.438zM6.57 13.668H8.17v3.118H6.57zM6.57 17.148H8.17v3.12H6.57z" fill="#FFF"/><g fill="#FFF"><path d="M6.57 10.19H8.17v3.118H6.57zM7.37 6.89c-.376.12-.602.403-.798.72v2.22h1.62V6.77h-.54c-.094.042-.185.09-.28.12z"/></g><path d="M6.572 22.845c.22.458.63.676 1.08.84h.54v-3.06H6.57v2.22zM23.966 9.672v-2.06c-.222-.458-.63-.677-1.08-.842H11.668v2.902h12.298z" fill="#FFF"/><g fill="#125D2F"><path d="M24.245 10.287v-.615H11.668V6.533h-.417v17.423h.418v-3.214h12.47v-.616H11.67v-2.854h12.47v-.615H11.67v-2.832h12.47v-.615H11.67v-2.923M8.06 9.672H6.15v.615h1.91v2.923H6.13v.615h1.93v2.832H6.13v.615h1.93v2.854H6.13v.616h1.93v3.214h.415V6.533H8.06"/></g></g></svg>